<svg xmlns="http://www.w3.org/2000/svg" viewBox="0 0 24 24" fill="none"><defs><mask id="mask0_1_2" style="mask-type:alpha" maskUnits="userSpaceOnUse" x="0" y="0" width="24" height="24">
<g>
<path d="M23.7296 0.395996H0.689575V23.436H23.7296V0.395996Z" fill="#D9D9D9" />
</g>
</mask>
</defs><g mask="url(#mask0_1_2)">
<path d="M5.48958 19.5959C4.96158 19.5959 4.50958 19.4079 4.13358 19.0319C3.75759 18.6559 3.56958 18.2039 3.56958 17.6759V10.9559C3.56958 9.77195 3.79758 8.65591 4.25358 7.60792C4.70958 6.55991 5.32959 5.64391 6.11358 4.85992C6.89758 4.07591 7.81359 3.45592 8.86158 2.99992C9.90955 2.54392 11.0256 2.31592 12.2096 2.31592C13.3936 2.31592 14.5096 2.54392 15.5576 2.99992C16.6056 3.45592 17.5216 4.07591 18.3056 4.85992C19.0896 5.64391 19.7096 6.55991 20.1656 7.60792C20.6216 8.65591 20.8496 9.77195 20.8496 10.9559V20.5559C20.8496 21.0839 20.6616 21.5359 20.2856 21.9119C19.9096 22.288 19.4576 22.4759 18.9296 22.4759H13.1696C12.8976 22.4759 12.6696 22.3839 12.4856 22.1999C12.3016 22.0159 12.2096 21.7879 12.2096 21.5159C12.2096 21.2439 12.3016 21.0159 12.4856 20.8319C12.6696 20.6479 12.8976 20.5559 13.1696 20.5559H18.9296V19.5959H17.0096C16.4816 19.5959 16.0296 19.4079 15.6536 19.0319C15.2776 18.6559 15.0896 18.2039 15.0896 17.6759V13.8359C15.0896 13.3079 15.2776 12.8559 15.6536 12.4799C16.0296 12.1039 16.4816 11.9159 17.0096 11.9159H18.9296V10.9559C18.9296 9.09991 18.2736 7.51591 16.9616 6.20392C15.6496 4.89191 14.0656 4.23592 12.2096 4.23592C10.3536 4.23592 8.76958 4.89191 7.45758 6.20392C6.14559 7.51591 5.48958 9.09991 5.48958 10.9559V11.9159H7.40958C7.93758 11.9159 8.38958 12.1039 8.76558 12.4799C9.14158 12.8559 9.32958 13.3079 9.32958 13.8359V17.6759C9.32958 18.2039 9.14158 18.6559 8.76558 19.0319C8.38958 19.4079 7.93758 19.5959 7.40958 19.5959H5.48958Z" fill="currentColor" />
</g>
</svg>
