<svg width="16" height="16" viewBox="0 0 16 16" fill="none" xmlns="http://www.w3.org/2000/svg">
<mask id="mask0_68_53673" style="mask-type:alpha" maskUnits="userSpaceOnUse" x="0" y="0" width="16" height="16">
<path d="M0 0H16V16H0V0Z" fill="#D9D9D9"/>
</mask>
<g mask="url(#mask0_68_53673)">
<path d="M4.66669 14C4.30002 14 3.98613 13.8694 3.72502 13.6083C3.46391 13.3472 3.33335 13.0333 3.33335 12.6667V4C3.14446 4 2.98613 3.93611 2.85835 3.80833C2.73058 3.68056 2.66669 3.52222 2.66669 3.33333C2.66669 3.14444 2.73058 2.98611 2.85835 2.85833C2.98613 2.73056 3.14446 2.66667 3.33335 2.66667H6.00002C6.00002 2.47778 6.06391 2.31944 6.19169 2.19167C6.31946 2.06389 6.4778 2 6.66669 2H9.33335C9.52224 2 9.68058 2.06389 9.80835 2.19167C9.93613 2.31944 10 2.47778 10 2.66667H12.6667C12.8556 2.66667 13.0139 2.73056 13.1417 2.85833C13.2695 2.98611 13.3334 3.14444 13.3334 3.33333C13.3334 3.52222 13.2695 3.68056 13.1417 3.80833C13.0139 3.93611 12.8556 4 12.6667 4V12.6667C12.6667 13.0333 12.5361 13.3472 12.275 13.6083C12.0139 13.8694 11.7 14 11.3334 14H4.66669ZM6.00002 11.3333H7.33335V5.33333H6.00002V11.3333ZM8.66669 11.3333H10V5.33333H8.66669V11.3333Z" fill="white"/>
</g>
</svg>
